<?xml version="1.0" ?><svg viewBox="0 0 32 32" xmlns="http://www.w3.org/2000/svg" xmlns:xlink="http://www.w3.org/1999/xlink"><style>:root>svg{display:none}:root>svg:target{display:block}</style><svg data-name="Layer 24" viewBox="0 0 32 32" id="test" xmlns="http://www.w3.org/2000/svg"><path d="M2.5 10.268a1 1 0 00-.366 1.366l1 1.732a1 1 0 101.732-1l.981-.566A3.993 3.993 0 007.7 12.858V14a1 1 0 000 2h2a1 1 0 000-2v-1.142a3.993 3.993 0 001.846-1.058l.98.566a1 1 0 001.732 1l1-1.732a1 1 0 00-1.732-1l-.991-.572A3.947 3.947 0 0012.7 9a3.947 3.947 0 00-.161-1.062l.991-.572a1 1 0 001.732-1l-1-1.732a1 1 0 10-1.732 1l-.98.566A3.993 3.993 0 009.7 5.142V4a1 1 0 000-2h-2a1 1 0 000 2v1.142A3.993 3.993 0 005.847 6.2l-.981-.566a1 1 0 10-1.732-1l-1 1.732a1 1 0 001.732 1l.991.573A3.946 3.946 0 004.7 9a3.946 3.946 0 00.161 1.061l-.991.572a1 1 0 00-1.37-.365zM8.7 7a2 2 0 11-2 2 2 2 0 012-2zM29 6h-4a1 1 0 000 2h1.683L15.87 20.615l-4.245-3.4a1 1 0 00-1.283.028l-8 7a1 1 0 001.317 1.506l7.37-6.449 4.347 3.478a1 1 0 001.384-.131L28 9.537V11a1 1 0 002 0V7a1 1 0 00-1-1zM6 26a1 1 0 00-1 1v2a1 1 0 002 0v-2a1 1 0 00-1-1z"/><path d="M11 22a1 1 0 00-1 1v6a1 1 0 002 0v-6a1 1 0 00-1-1zM16 25a1 1 0 00-1 1v3a1 1 0 002 0v-3a1 1 0 00-1-1zM21 21a1 1 0 00-1 1v7a1 1 0 002 0v-7a1 1 0 00-1-1zM26 15a1 1 0 00-1 1v13a1 1 0 002 0V16a1 1 0 00-1-1z"/></svg></svg>